<?xml version="1.0" encoding="UTF-8"?>
<svg id="_图层_1" data-name="图层_1" xmlns="http://www.w3.org/2000/svg" version="1.1" viewBox="0 0 100 100">
  <!-- Generator: Adobe Illustrator 29.6.0, SVG Export Plug-In . SVG Version: 2.1.1 Build 207)  -->
  <defs>
    <style>
      .st0 {
        fill: #aeb1b8;
      }

      .st1 {
        fill: #eee;
      }

      .st2 {
        fill: #7690c4;
      }
    </style>
  </defs>
  <g id="_图层_11" data-name="_图层_1">
    <rect class="st1" x="7.08" y="28.79" width="74.35" height="49.57"/>
    <path class="st2" d="M4.98,25.25c-.84.16-1.45.91-1.44,1.77v51.34h-1.94C.69,78.44-.01,79.21,0,80.13v8.85C0,89.96.8,90.75,1.77,90.75h84.97c.98,0,1.77-.8,1.77-1.77v-8.85c0-.98-.8-1.77-1.77-1.77h-1.77V27.02c0-.98-.8-1.77-1.77-1.77H4.98ZM7.08,78.36V28.79h74.35v49.57h-42.65M70.22,46.83c-.1,0-.19.03-.28.06-.28.05-.55.16-.77.33l-23.68,16.87-9.57-7.97c-.62-.5-1.51-.53-2.16-.06l-14.16,10.62c-.8.58-.97,1.69-.39,2.49s1.69.97,2.49.39l13.06-9.79,9.57,7.97c.62.5,1.51.53,2.16.06l24.78-17.7c.68-.43.99-1.27.74-2.04s-.98-1.27-1.79-1.22h0ZM3.54,81.9h81.43v5.31H3.54v-5.31Z"/>
    <rect class="st1" x="3.54" y="81.9" width="81.43" height="5.31"/>
  </g>
  <g id="_图层_2">
    <g>
      <circle cx="82.6" cy="26.94" r="14.16"/>
      <path d="M78.47,9.25l-.87,4.47c-1.46.55-2.8,1.32-3.97,2.29l-4.29-1.48-4.14,7.16,3.44,2.99c-.13.81-.2,1.56-.2,2.29s.07,1.47.2,2.29h0l-3.44,2.99,4.14,7.15,4.29-1.48c1.17.96,2.52,1.73,3.98,2.28l.87,4.47h8.26l.87-4.47c1.46-.55,2.8-1.32,3.97-2.29l4.29,1.48,4.13-7.15-3.43-2.99c.13-.81.2-1.56.2-2.29s-.07-1.47-.2-2.28h0l3.44-2.99-4.14-7.15-4.29,1.48c-1.17-.96-2.52-1.73-3.98-2.28l-.87-4.47h-8.26v-.02ZM81.39,12.79h2.43l.69,3.54,1.85.7c1.11.42,2.11,1,2.98,1.71l1.53,1.25,3.4-1.17,1.21,2.1-2.72,2.36.31,1.95h0c.11.67.16,1.22.16,1.72s-.05,1.05-.16,1.72l-.31,1.95,2.72,2.36-1.21,2.1-3.4-1.17-1.53,1.26c-.87.71-1.86,1.29-2.98,1.71h0l-1.85.7-.69,3.54h-2.42l-.69-3.54-1.85-.7c-1.11-.42-2.11-1-2.98-1.71l-1.53-1.25-3.4,1.17-1.21-2.1,2.72-2.37-.31-1.94h0c-.11-.67-.16-1.23-.16-1.73s.05-1.05.16-1.72l.31-1.95-2.72-2.36,1.21-2.1,3.4,1.17,1.53-1.26c.87-.71,1.87-1.29,2.98-1.71l1.85-.7.69-3.54h-.01ZM82.6,19.87c-3.89,0-7.08,3.19-7.08,7.08s3.19,7.08,7.08,7.08,7.08-3.19,7.08-7.08-3.19-7.08-7.08-7.08ZM82.6,23.41c1.97,0,3.54,1.57,3.54,3.54s-1.57,3.54-3.54,3.54-3.54-1.57-3.54-3.54,1.57-3.54,3.54-3.54Z"/>
    </g>
    <g>
      <circle class="st1" cx="82.6" cy="26.94" r="14.16"/>
      <path class="st0" d="M78.47,9.25l-.87,4.47c-1.46.55-2.8,1.32-3.97,2.29l-4.29-1.48-4.14,7.16,3.44,2.99c-.13.81-.2,1.56-.2,2.29s.07,1.47.2,2.29h0l-3.44,2.99,4.14,7.15,4.29-1.48c1.17.96,2.52,1.73,3.98,2.28l.87,4.47h8.26l.87-4.47c1.46-.55,2.8-1.32,3.97-2.29l4.29,1.48,4.13-7.15-3.43-2.99c.13-.81.2-1.56.2-2.29s-.07-1.47-.2-2.28h0l3.44-2.99-4.14-7.15-4.29,1.48c-1.17-.96-2.52-1.73-3.98-2.28l-.87-4.47h-8.26v-.02ZM81.39,12.79h2.43l.69,3.54,1.85.7c1.11.42,2.11,1,2.98,1.71l1.53,1.25,3.4-1.17,1.21,2.1-2.72,2.36.31,1.95h0c.11.67.16,1.22.16,1.72s-.05,1.05-.16,1.72l-.31,1.95,2.72,2.36-1.21,2.1-3.4-1.17-1.53,1.26c-.87.71-1.86,1.29-2.98,1.71h0l-1.85.7-.69,3.54h-2.42l-.69-3.54-1.85-.7c-1.11-.42-2.11-1-2.98-1.71l-1.53-1.25-3.4,1.17-1.21-2.1,2.72-2.37-.31-1.94h0c-.11-.67-.16-1.23-.16-1.73s.05-1.05.16-1.72l.31-1.95-2.72-2.36,1.21-2.1,3.4,1.17,1.53-1.26c.87-.71,1.87-1.29,2.98-1.71l1.85-.7.69-3.54h-.01ZM82.6,19.87c-3.89,0-7.08,3.19-7.08,7.08s3.19,7.08,7.08,7.08,7.08-3.19,7.08-7.08-3.19-7.08-7.08-7.08ZM82.6,23.41c1.97,0,3.54,1.57,3.54,3.54s-1.57,3.54-3.54,3.54-3.54-1.57-3.54-3.54,1.57-3.54,3.54-3.54Z"/>
    </g>
  </g>
</svg>