<?xml version="1.0" encoding="UTF-8"?>
<svg id="_图层_1" xmlns="http://www.w3.org/2000/svg" version="1.1" xmlns:xlink="http://www.w3.org/1999/xlink" viewBox="0 0 512 512">
  <!-- Generator: Adobe Illustrator 30.1.0, SVG Export Plug-In . SVG Version: 2.1.1 Build 136)  -->
  <defs>
    <style>
      .st0 {
        filter: url(#drop-shadow-2);
      }

      .st1 {
        fill: #e0e7ff;
      }

      .st2 {
        fill: #fff;
      }

      .st3 {
        filter: url(#drop-shadow-1);
      }

      .st4 {
        fill: #1d4ed8;
        filter: url(#drop-shadow-3);
      }

      .st5 {
        fill: none;
        stroke: #1d4ed8;
        stroke-linecap: round;
        stroke-linejoin: round;
        stroke-width: 12px;
      }
    </style>
    <filter id="drop-shadow-1" x="97" y="80" width="318" height="251" filterUnits="userSpaceOnUse">
      <feOffset dx="0" dy="0" />
      <feGaussianBlur result="blur" stdDeviation="5" />
      <feFlood flood-color="#000" flood-opacity=".2" />
      <feComposite in2="blur" operator="in" />
      <feComposite in="SourceGraphic" />
    </filter>
    <filter id="drop-shadow-2" x="162" y="97" width="188" height="217" filterUnits="userSpaceOnUse">
      <feOffset dx="0" dy="0" />
      <feGaussianBlur result="blur1" stdDeviation="8" />
      <feFlood flood-color="#06f" flood-opacity=".5" />
      <feComposite in2="blur1" operator="in" />
      <feComposite in="SourceGraphic" />
    </filter>
    <filter id="drop-shadow-3" x="300.72" y="264.12" width="165" height="168" filterUnits="userSpaceOnUse">
      <feOffset dx="-1" dy="-1" />
      <feGaussianBlur result="blur2" stdDeviation="6" />
      <feFlood flood-color="#005cff" flood-opacity=".5" />
      <feComposite in2="blur2" operator="in" />
      <feComposite in="SourceGraphic" />
    </filter>
  </defs>
  <rect class="st1" x="32" y="32" width="448" height="448" rx="96" ry="96" />
  <g class="st3">
    <rect class="st2" x="112" y="95.56" width="288" height="220" rx="28" ry="28" />
  </g>
  <g class="st0">
    <path class="st5" d="M256,127.12c-36,0-64,28-64,64,0,24,14,40,28,54,6,6,10,14,10,22" />
    <path class="st5" d="M256,127.12c36,0,64,28,64,64,0,24-14,40-28,54-6,6-10,14-10,22" />
    <line class="st5" x1="230" y1="267.12" x2="282" y2="267.12" />
    <line class="st5" x1="231.44" y1="284" x2="280.56" y2="284" />
  </g>
  <path class="st4" d="M428.48,284l-.93,6.46c-.61,4.27-3.96,7.62-8.23,8.23l-6.46.93v3.9s6.46.93,6.46.93c4.27.61,7.62,3.96,8.23,8.23l.93,6.46h3.9s.93-6.46.93-6.46c.61-4.27,3.96-7.62,8.23-8.23l6.46-.93v-3.9s-6.46-.93-6.46-.93c-4.27-.61-7.62-3.96-8.23-8.23l-.93-6.46h-3.9ZM385.25,284l-.59,4.16c-.39,2.74-2.55,4.9-5.29,5.29l-4.15.59v2.51s4.16.59,4.16.59c2.74.39,4.9,2.55,5.29,5.29l.59,4.15h2.51s.59-4.16.59-4.16c.39-2.74,2.55-4.9,5.29-5.29l4.15-.59v-2.51s-4.16-.59-4.16-.59c-2.74-.39-4.9-2.55-5.29-5.29l-.59-4.15h-2.51ZM330.08,296.58c-6.12,6.12-9.14,13.02-6.75,15.42,0,0,0,0,0,0l99.56,99.56c3.92,3.92,10.28,3.92,14.2,0l7.96-7.96c3.92-3.92,3.92-10.28,0-14.2l-99.56-99.56s0,0,0,0c-.5-.49-1.2-.77-2.09-.81-3.3-.16-8.63,2.87-13.32,7.56ZM377.73,336.27l-7.97,7.96-35.29-35.29c2.95-2.17,5.79-5.01,7.97-7.96l35.29,35.29ZM340.08,366.82l-1.19,8.31c-.78,5.49-5.1,9.8-10.58,10.58l-8.31,1.19v5.02s8.31,1.19,8.31,1.19c5.49.78,9.8,5.1,10.58,10.58l1.19,8.31h5.02s1.19-8.31,1.19-8.31c.78-5.49,5.1-9.8,10.58-10.58l8.31-1.19v-5.02s-8.31-1.19-8.31-1.19c-5.49-.78-9.8-5.1-10.58-10.58l-1.19-8.31h-5.02Z" />
</svg>